<?xml version="1.0" encoding="UTF-8" standalone="no"?>
<!-- Created with Inkscape (http://www.inkscape.org/) -->

<svg
   width="64"
   height="64"
   viewBox="0 0 64 64"
   version="1.1"
   id="svg5"
   inkscape:version="1.2.2 (b0a8486541, 2022-12-01)"
   sodipodi:docname="favicon.svg"
   inkscape:export-filename="favicon.png"
   inkscape:export-xdpi="96"
   inkscape:export-ydpi="96"
   xml:space="preserve"
   xmlns:inkscape="http://www.inkscape.org/namespaces/inkscape"
   xmlns:sodipodi="http://sodipodi.sourceforge.net/DTD/sodipodi-0.dtd"
   xmlns:xlink="http://www.w3.org/1999/xlink"
   xmlns="http://www.w3.org/2000/svg"
   xmlns:svg="http://www.w3.org/2000/svg"><sodipodi:namedview
     id="namedview7"
     pagecolor="#505050"
     bordercolor="#eeeeee"
     borderopacity="1"
     inkscape:showpageshadow="0"
     inkscape:pageopacity="0"
     inkscape:pagecheckerboard="0"
     inkscape:deskcolor="#505050"
     inkscape:document-units="px"
     showgrid="false"
     inkscape:zoom="5.6568543"
     inkscape:cx="-1.6793786"
     inkscape:cy="42.072853"
     inkscape:window-width="1920"
     inkscape:window-height="950"
     inkscape:window-x="-9"
     inkscape:window-y="-9"
     inkscape:window-maximized="1"
     inkscape:current-layer="layer1" /><defs
     id="defs2"><linearGradient
       id="blue-lighter"
       inkscape:swatch="solid"><stop
         style="stop-color:#44709b;stop-opacity:1;"
         offset="0"
         id="stop4988" /></linearGradient><linearGradient
       id="yellow"
       inkscape:swatch="solid"
       gradientTransform="matrix(0.98460361,0,0,0.98460361,-11.241987,1.2333887)"><stop
         style="stop-color:#f1d302;stop-opacity:1;"
         offset="0"
         id="stop2851" /></linearGradient><linearGradient
       id="blue"
       inkscape:swatch="solid"
       gradientTransform="matrix(0.98460361,0,0,0.98460361,-9.9566473,1.6805627)"><stop
         style="stop-color:#235789;stop-opacity:1;"
         offset="0"
         id="stop2845" /></linearGradient><linearGradient
       inkscape:collect="always"
       xlink:href="#blue"
       id="linearGradient2849"
       x1="26"
       y1="40.5"
       x2="42"
       y2="40.5"
       gradientUnits="userSpaceOnUse" /><linearGradient
       inkscape:collect="always"
       xlink:href="#yellow"
       id="linearGradient2855"
       x1="22"
       y1="21.5"
       x2="38"
       y2="21.5"
       gradientUnits="userSpaceOnUse" /><linearGradient
       inkscape:collect="always"
       xlink:href="#yellow"
       id="linearGradient4992"
       x1="15.706613"
       y1="39.856003"
       x2="28.487244"
       y2="39.856003"
       gradientUnits="userSpaceOnUse" /></defs><g
     inkscape:label="Layer 1"
     inkscape:groupmode="layer"
     id="layer1"><rect
       style="fill:#333333;stroke-width:0.264583"
       id="rect234"
       width="64"
       height="64"
       x="0"
       y="0"
       inkscape:label="bgr"
       ry="16"
       sodipodi:insensitive="true" /><g
       id="g608"
       style="display:none;opacity:0.5"
       transform="translate(0,1)"
       sodipodi:insensitive="true"
       inkscape:label="v1"><path
         style="fill:#ff9955;stroke:none"
         d="M 38,9 22,34 h 10 z"
         id="path499"
         sodipodi:nodetypes="cccc" /><use
         x="0"
         y="0"
         xlink:href="#path499"
         id="use604"
         transform="rotate(180,32,31)" /></g><g
       id="g1178"
       style="display:none"
       transform="translate(0,1)"
       sodipodi:insensitive="true"
       inkscape:label="v2 (recolor)"><path
         style="fill:url(#linearGradient2855);fill-opacity:1;stroke:none"
         d="M 38,9 22,34 h 10 z"
         id="path1174"
         sodipodi:nodetypes="cccc" /><path
         style="mix-blend-mode:screen;fill:url(#linearGradient2849);fill-opacity:1;stroke:none"
         d="M 26,53 42,28 H 32 Z"
         id="use1176"
         sodipodi:nodetypes="cccc" /></g><g
       id="g2775"
       style="display:none"
       sodipodi:insensitive="true"
       inkscape:label="v3 (rounded)"><path
         id="path2634"
         style="display:inline;fill:#ff9955;stroke:none"
         d="m 35.634766,13.546875 c -0.314757,9.22e-4 -0.610712,0.149984 -0.715455,0.291824 -0.104743,0.14184 -0.129343,0.17585 -0.147873,0.20423 L 23.986328,30.896484 C 23.76978,31.22378 23.654309,31.607552 23.654297,32 c 0,1.104569 0.895431,2 2,2 H 32 l 4.6172,-19.249994 c 0.01566,-0.06794 0.01636,-0.133418 0.01758,-0.203125 0,-0.552285 -0.447715,-1 -1,-1 z"
         transform="translate(0,1)"
         sodipodi:nodetypes="czccccccccc" /><use
         x="0"
         y="0"
         xlink:href="#path2634"
         id="use2771"
         transform="rotate(180,32.00239,32)" /></g><g
       id="g2781"
       style="display:none"
       transform="matrix(1.4897046,0,0,1.4897046,0.84975318,-16.373671)"
       inkscape:label="v4 (scaled recolor)"><path
         id="path2777"
         style="display:inline;fill:url(#blue);stroke:none;stroke-width:0.984604"
         d="m 25.129472,15.018864 c -0.309911,9.08e-4 -0.601309,0.147675 -0.70444,0.287331 -0.10313,0.139656 -0.127351,0.173143 -0.145596,0.201086 L 13.660378,32.101352 c -0.213214,0.322256 -0.326907,0.70012 -0.326919,1.086525 0,1.087563 0.881645,1.969208 1.969207,1.969208 h 6.248002 L 26.09678,16.203471 c 0.01542,-0.06689 0.01611,-0.131364 0.01731,-0.199997 0,-0.543782 -0.440821,-0.984604 -0.984603,-0.984604 z"
         sodipodi:nodetypes="czccccccccc" /><path
         id="path4098"
         style="display:inline;opacity:0.15;fill:#ffffff;stroke:none;stroke-width:0.984604"
         d="m 25.129472,15.018864 c -0.309911,9.08e-4 -0.601309,0.147675 -0.70444,0.287331 -0.10313,0.139656 -0.127351,0.173143 -0.145596,0.201086 L 13.660378,32.101352 c -0.213214,0.322256 -0.326907,0.70012 -0.326919,1.086525 0,1.087563 0.881645,1.969208 1.969207,1.969208 h 6.248002 L 26.09678,16.203471 c 0.01542,-0.06689 0.01611,-0.131364 0.01731,-0.199997 0,-0.543782 -0.440821,-0.984604 -0.984603,-0.984604 z"
         sodipodi:nodetypes="czccccccccc"
         inkscape:label="lighter" /><path
         id="use2779"
         style="display:inline;fill:url(#yellow);stroke:none;stroke-width:0.984604"
         d="m 16.691231,49.925113 c 0.309911,-9.08e-4 0.60131,-0.147675 0.70444,-0.287331 0.10313,-0.139656 0.127352,-0.173143 0.145596,-0.201086 L 28.160325,32.842625 c 0.213214,-0.322257 0.326908,-0.70012 0.326919,-1.086526 0,-1.087562 -0.881644,-1.969207 -1.969207,-1.969207 h -6.248002 l -4.546112,18.953614 c -0.01542,0.06689 -0.01611,0.131363 -0.01731,0.199997 0,0.543782 0.440822,0.984604 0.984604,0.984604 z"
         sodipodi:nodetypes="czccccccccc" /><path
         id="path2864"
         style="display:inline;fill:#ffffff;stroke:none;stroke-width:0.984604"
         d="m 20.270543,29.786893 -1.288793,5.370192 h 2.56841 l 1.288793,-5.370192 z" /></g><g
       id="g4180"
       style="display:none"
       transform="matrix(2.3205014,0,0,2.3205014,-16.5225,-43.351295)"
       inkscape:label="v5 (scaled)"><path
         id="path4172"
         style="display:inline;fill:url(#blue);stroke:none;stroke-width:0.984604"
         d="m 25.129472,15.018864 c -0.309911,9.08e-4 -0.601309,0.147675 -0.70444,0.287331 -0.10313,0.139656 -0.127351,0.173143 -0.145596,0.201086 L 13.660378,32.101352 c -0.213214,0.322256 -0.326907,0.70012 -0.326919,1.086525 0,1.087563 0.881645,1.969208 1.969207,1.969208 h 6.248002 L 26.09678,16.203471 c 0.01542,-0.06689 0.01611,-0.131364 0.01731,-0.199997 0,-0.543782 -0.440821,-0.984604 -0.984603,-0.984604 z"
         sodipodi:nodetypes="czccccccccc" /><path
         id="path4174"
         style="display:inline;opacity:0.15;fill:#ffffff;stroke:none;stroke-width:0.984604"
         d="m 25.129472,15.018864 c -0.309911,9.08e-4 -0.601309,0.147675 -0.70444,0.287331 -0.10313,0.139656 -0.127351,0.173143 -0.145596,0.201086 L 13.660378,32.101352 c -0.213214,0.322256 -0.326907,0.70012 -0.326919,1.086525 0,1.087563 0.881645,1.969208 1.969207,1.969208 h 6.248002 L 26.09678,16.203471 c 0.01542,-0.06689 0.01611,-0.131364 0.01731,-0.199997 0,-0.543782 -0.440821,-0.984604 -0.984603,-0.984604 z"
         sodipodi:nodetypes="czccccccccc"
         inkscape:label="lighter" /><path
         id="path4176"
         style="display:inline;fill:url(#yellow);stroke:none;stroke-width:0.984604"
         d="m 16.691231,49.925113 c 0.309911,-9.08e-4 0.60131,-0.147675 0.70444,-0.287331 0.10313,-0.139656 0.127352,-0.173143 0.145596,-0.201086 L 28.160325,32.842625 c 0.213214,-0.322257 0.326908,-0.70012 0.326919,-1.086526 0,-1.087562 -0.881644,-1.969207 -1.969207,-1.969207 h -6.248002 l -4.546112,18.953614 c -0.01542,0.06689 -0.01611,0.131363 -0.01731,0.199997 0,0.543782 0.440822,0.984604 0.984604,0.984604 z"
         sodipodi:nodetypes="czccccccccc" /><path
         id="path4178"
         style="display:inline;fill:#ffffff;stroke:none;stroke-width:0.984604"
         d="m 20.270543,29.786893 -1.288793,5.370192 h 2.56841 l 1.288793,-5.370192 z" /></g><g
       id="g4774"
       style="display:inline"
       transform="matrix(2.3205014,0,0,2.3205014,-16.5225,-43.351295)"
       inkscape:label="v6 (cut)"><path
         id="path4766"
         style="display:inline;fill:url(#blue);stroke:none;stroke-width:0.984604"
         d="M 21.145181,20.405631 13.6601,32.101648 c -0.213214,0.322256 -0.326561,0.700208 -0.326573,1.086612 0,1.087562 0.881976,1.968695 1.969537,1.968695 h 6.247808 l 3.537591,-14.751324 z"
         inkscape:label="top-blue" /><path
         id="path4998"
         style="display:inline;opacity:0.25;fill:#ffffff;stroke:none;stroke-width:0.984604"
         d="M 21.145181,20.405631 13.6601,32.101648 c -0.213214,0.322256 -0.326561,0.700208 -0.326573,1.086612 0,1.087562 0.881976,1.968695 1.969537,1.968695 h 6.247808 l 3.537591,-14.751324 z"
         inkscape:label="top-blue" /><path
         id="path4770"
         style="display:inline;fill:url(#linearGradient4992);fill-opacity:1;stroke:none;stroke-width:0.984604"
         inkscape:label="bottom-yellow"
         d="M 20.269831,29.787022 16.73224,44.538346 h 3.943282 l 7.485081,-11.696017 c 0.213214,-0.322257 0.326562,-0.700206 0.326573,-1.086612 0,-1.087561 -0.881975,-1.968695 -1.969537,-1.968695 z" /><path
         id="path4772"
         style="display:inline;fill:#ffffff;stroke:none;stroke-width:0.984604"
         d="m 20.270543,29.786893 -1.288793,5.370192 h 2.56841 l 1.288793,-5.370192 z"
         inkscape:label="center" /></g></g></svg>
