<?xml version="1.0" encoding="UTF-8" standalone="no"?>
<!-- Created with Inkscape (http://www.inkscape.org/) -->

<svg
   width="512"
   height="512"
   viewBox="0 0 512 512"
   version="1.1"
   id="svg5"
   inkscape:version="1.2.2 (b0a8486541, 2022-12-01)"
   sodipodi:docname="favicon.svg"
   inkscape:export-filename="favicon-64.png"
   inkscape:export-xdpi="12"
   inkscape:export-ydpi="12"
   xml:space="preserve"
   xmlns:inkscape="http://www.inkscape.org/namespaces/inkscape"
   xmlns:sodipodi="http://sodipodi.sourceforge.net/DTD/sodipodi-0.dtd"
   xmlns:xlink="http://www.w3.org/1999/xlink"
   xmlns="http://www.w3.org/2000/svg"
   xmlns:svg="http://www.w3.org/2000/svg"><sodipodi:namedview
     id="namedview7"
     pagecolor="#505050"
     bordercolor="#eeeeee"
     borderopacity="1"
     inkscape:showpageshadow="0"
     inkscape:pageopacity="0"
     inkscape:pagecheckerboard="0"
     inkscape:deskcolor="#505050"
     inkscape:document-units="px"
     showgrid="false"
     inkscape:zoom="0.70710678"
     inkscape:cx="79.19596"
     inkscape:cy="292.74221"
     inkscape:window-width="1920"
     inkscape:window-height="950"
     inkscape:window-x="-9"
     inkscape:window-y="-9"
     inkscape:window-maximized="1"
     inkscape:current-layer="layer1" /><defs
     id="defs2"><linearGradient
       id="linearGradient969"
       inkscape:swatch="solid"><stop
         style="stop-color:#333333;stop-opacity:1;"
         offset="0"
         id="stop967" /></linearGradient><linearGradient
       id="lightskyblue"
       inkscape:swatch="solid"
       gradientTransform="matrix(-5.3847267,0,0,-5.3847267,168.3814,205.75764)"><stop
         style="stop-color:#82ceff;stop-opacity:1;"
         offset="0"
         id="stop6542" /></linearGradient><linearGradient
       id="blue-lighter"
       inkscape:swatch="solid"><stop
         style="stop-color:#44709b;stop-opacity:1;"
         offset="0"
         id="stop4988" /></linearGradient><linearGradient
       id="yellow"
       inkscape:swatch="solid"
       gradientTransform="matrix(0.98460361,0,0,0.98460361,-11.241987,1.2333887)"><stop
         style="stop-color:#f1d302;stop-opacity:1;"
         offset="0"
         id="stop2851" /></linearGradient><linearGradient
       id="blue"
       inkscape:swatch="solid"
       gradientTransform="matrix(0.98460361,0,0,0.98460361,-9.9566473,1.6805627)"><stop
         style="stop-color:#235789;stop-opacity:1;"
         offset="0"
         id="stop2845" /></linearGradient><linearGradient
       inkscape:collect="always"
       xlink:href="#linearGradient969"
       id="linearGradient971"
       x1="0"
       y1="32"
       x2="64"
       y2="32"
       gradientUnits="userSpaceOnUse" /></defs><g
     inkscape:label="Layer 1"
     inkscape:groupmode="layer"
     id="layer1"
     transform="scale(8)"><rect
       style="fill:url(#linearGradient971);stroke-width:0.264583;fill-opacity:1"
       id="rect234"
       width="64"
       height="64"
       x="0"
       y="0"
       inkscape:label="bgr"
       ry="16"
       sodipodi:insensitive="true" /><g
       id="g5088"
       style="display:inline"
       transform="matrix(2.3930197,0,0,2.3930197,-17.60588,-45.705831)"
       inkscape:label="v7 (recolor, rounded)"><path
         id="path7560"
         style="display:inline;opacity:1;fill:url(#yellow);fill-opacity:1;stroke:none;stroke-width:2.28478"
         inkscape:label="bottom-yellow"
         d="M 28.19107,59.999468 45.560211,32.858844 c 0.494763,-0.747795 0.757785,-1.624843 0.757813,-2.521484 0,-2.52368 -2.046636,-4.569584 -4.570314,-4.56836 l -10.511409,0.0051 c -0.920025,4.46e-4 -1.717651,0.64632 -1.945332,1.59567 l -7.261591,30.278132 c -0.0301,0.125446 -0.02894,0.274798 -0.02935,0.351561 -0.006,1.103029 0.962574,1.999464 1.910208,2 0.947633,5.36e-4 4.280838,0 4.280838,0 z"
         sodipodi:nodetypes="cccssssszcc"
         transform="matrix(0.43094135,0,0,0.43094135,7.1202284,18.681865)" /><path
         id="path7558"
         style="display:inline;opacity:1;fill:url(#lightskyblue);fill-opacity:1;stroke:none;stroke-width:2.28478"
         inkscape:label="top-blue"
         d="M 34.969166,4.0000003 17.600025,31.140624 c -0.494764,0.747796 -0.757785,1.624843 -0.757813,2.521485 0,2.52368 2.046636,4.569583 4.570313,4.568359 l 10.511409,-0.0051 c 0.920026,-4.46e-4 1.717649,-0.64632 1.945332,-1.595669 L 41.130858,6.3515613 c 0.0301,-0.125446 0.02894,-0.274798 0.02935,-0.35156 0.006,-1.10303 -0.962574,-1.999465 -1.910209,-2.000001 -0.947632,-5.36e-4 -4.280837,0 -4.280837,0 z"
         sodipodi:nodetypes="cccssssszcc"
         transform="matrix(0.43094135,0,0,0.43094135,7.1202284,18.681865)" /><path
         id="path7565"
         style="display:inline;opacity:1;fill:#ffffff;fill-opacity:1;stroke:none;stroke-width:2.28478"
         inkscape:label="bottom-yellow"
         d="m 36.472656,25.771485 -5.236328,0.002 c -0.920024,3.62e-4 -1.717632,0.646355 -1.945313,1.595704 L 26.6875,38.22661 l 5.236328,-0.002 c 0.920025,-3.62e-4 1.71763,-0.646355 1.945312,-1.595703 z"
         transform="matrix(0.43094135,0,0,0.43094135,7.1202284,18.681865)" /></g></g></svg>
